<svg width="224" height="48" viewBox="0 0 224 48" fill="none" xmlns="http://www.w3.org/2000/svg">
<path d="M0.6875 2.4375C2.14583 2.64583 3.41667 2.8125 4.5 2.9375C5.58333 3.0625 6.47917 3.16667 7.1875 3.25C8.02083 3.33333 8.72917 3.39583 9.3125 3.4375C9.97917 3.52083 10.7917 3.47917 11.75 3.3125C12.75 3.14583 13.8125 2.97917 14.9375 2.8125C16.0625 2.60417 17.2292 2.4375 18.4375 2.3125C19.6458 2.1875 20.8125 2.1875 21.9375 2.3125C22.6875 2.39583 23.6458 2.5625 24.8125 2.8125C25.9792 3.0625 27.2083 3.45833 28.5 4C29.8333 4.54167 31.1667 5.25 32.5 6.125C33.8333 7 35.0417 8.10417 36.125 9.4375C37.2083 10.7708 38.1042 12.3542 38.8125 14.1875C39.5208 16.0208 39.9167 18.1667 40 20.625C40.125 24.2917 39.7917 27.625 39 30.625C38.2083 33.625 36.9792 36.1875 35.3125 38.3125C33.6875 40.4375 31.625 42.1042 29.125 43.3125C26.625 44.5208 23.7083 45.1875 20.375 45.3125C17.8333 45.5208 15.3333 45.7083 12.875 45.875C11.8333 45.9583 10.7292 46.0208 9.5625 46.0625C8.4375 46.1042 7.3125 46.1458 6.1875 46.1875C5.0625 46.1875 3.97917 46.1667 2.9375 46.125C1.89583 46.0833 0.9375 46.0208 0.0625 45.9375C1.02083 45.4792 1.79167 45.0208 2.375 44.5625C3 44.1042 3.47917 43.7083 3.8125 43.375C4.1875 42.9583 4.45833 42.5833 4.625 42.25C4.70833 41.7917 4.83333 40.8958 5 39.5625C5.125 38.4375 5.29167 36.8333 5.5 34.75C5.70833 32.6667 5.95833 29.8333 6.25 26.25L6.625 21.8125C6.83333 19.0625 6.91667 16.8125 6.875 15.0625C6.875 13.3125 6.83333 11.9375 6.75 10.9375C6.625 9.77083 6.45833 8.91667 6.25 8.375C6.08333 7.91667 5.77083 7.375 5.3125 6.75C4.89583 6.25 4.3125 5.64583 3.5625 4.9375C2.85417 4.1875 1.89583 3.35417 0.6875 2.4375ZM13.875 25.4375C13.9583 29.1458 14.1458 32 14.4375 34C14.7708 35.9583 15.125 37.4167 15.5 38.375C15.9583 39.4583 16.4583 40.1042 17 40.3125C17.7917 40.3125 18.6875 39.9792 19.6875 39.3125C20.6875 38.6042 21.6667 37.5417 22.625 36.125C23.625 34.7083 24.5208 32.9375 25.3125 30.8125C26.1458 28.6875 26.75 26.2083 27.125 23.375C27.5 20.5417 27.3958 18.0417 26.8125 15.875C26.2292 13.7083 25.4583 11.8958 24.5 10.4375C23.5417 8.9375 22.5625 7.8125 21.5625 7.0625C20.5625 6.27083 19.8125 5.875 19.3125 5.875C18.7292 5.875 18.2083 6.04167 17.75 6.375C17.2917 6.66667 16.6458 7.35417 15.8125 8.4375C15.3958 9.02083 15.0208 9.85417 14.6875 10.9375C14.3958 11.8958 14.1458 13.1667 13.9375 14.75C13.7292 16.3333 13.6667 18.375 13.75 20.875L13.875 25.4375ZM59.125 36.9375C60.2917 36.9375 61.375 36.8125 62.375 36.5625C63.2083 36.3542 64 36.0208 64.75 35.5625C65.5417 35.0625 66.0625 34.3333 66.3125 33.375C67.1458 33.5417 67.8542 33.6875 68.4375 33.8125C69.0208 33.8958 69.5208 33.9792 69.9375 34.0625C70.3958 34.1875 70.7917 34.2708 71.125 34.3125C71.4583 34.3958 71.8542 34.4792 72.3125 34.5625C72.7292 34.6458 73.2292 34.75 73.8125 34.875C74.4375 34.9583 75.1667 35.0833 76 35.25C75.375 35.1667 74.7292 35.2292 74.0625 35.4375C73.4375 35.6458 72.8333 35.875 72.25 36.125C71.5833 36.4167 70.9583 36.7708 70.375 37.1875C70 37.4375 69.5625 37.8125 69.0625 38.3125C68.6042 38.8125 67.9375 39.2917 67.0625 39.75C66.1875 40.2083 65.0208 40.6042 63.5625 40.9375C62.1458 41.2292 60.3125 41.3333 58.0625 41.25C55.3542 41.1667 53.0833 40.6875 51.25 39.8125C49.4167 38.8958 47.9375 37.7917 46.8125 36.5C45.6875 35.1667 44.875 33.7292 44.375 32.1875C43.875 30.6458 43.6042 29.2083 43.5625 27.875C43.5208 26.5417 43.9167 25.1458 44.75 23.6875C45.5833 22.2292 46.75 20.8958 48.25 19.6875C49.7917 18.4792 51.6458 17.5 53.8125 16.75C55.9792 15.9583 58.3542 15.5625 60.9375 15.5625C62.4375 15.5625 63.8125 15.75 65.0625 16.125C66.3542 16.4583 67.5208 16.9167 68.5625 17.5C69.6458 18.0833 70.5833 18.75 71.375 19.5C72.1667 20.2083 72.8333 20.9375 73.375 21.6875C73.9167 22.4792 74.375 23.3125 74.75 24.1875C75.0833 24.9375 75.3542 25.7917 75.5625 26.75C75.7708 27.7083 75.8333 28.6875 75.75 29.6875C72.5833 29.7708 70.0208 29.8333 68.0625 29.875C66.1458 29.9167 64.6458 29.9375 63.5625 29.9375H60.75H58.625C57.875 29.9375 56.8958 29.9583 55.6875 30C54.4792 30.0417 53 30.1042 51.25 30.1875C51.4583 31.8542 51.9792 33.1458 52.8125 34.0625C53.6875 34.9375 54.6042 35.6042 55.5625 36.0625C56.6458 36.5625 57.8333 36.8542 59.125 36.9375ZM53.5 25.6875C54.8333 25.7708 55.9375 25.8333 56.8125 25.875C57.7292 25.9167 58.4792 25.9583 59.0625 26C59.6875 26.0417 60.1875 26.0625 60.5625 26.0625H62.125C63.1667 26.0625 65.1042 26 67.9375 25.875C67.8125 24.0417 67.4167 22.6458 66.75 21.6875C66.125 20.7292 65.4583 20.0208 64.75 19.5625C63.9167 19.0625 63 18.7708 62 18.6875C59.2917 18.7292 57.2708 19.2917 55.9375 20.375C54.6458 21.4583 53.8333 23.2292 53.5 25.6875ZM75.0625 1.375C76.3958 1.58333 77.6042 1.77083 78.6875 1.9375C79.7708 2.0625 80.7083 2.16667 81.5 2.25C82.4167 2.375 83.2292 2.47917 83.9375 2.5625C84.8125 2.6875 86.125 2.54167 87.875 2.125C89.625 1.66667 91.5417 1.25 93.625 0.875C95.75 0.458333 97.9167 0.229167 100.125 0.1875C102.333 0.104167 104.354 0.5 106.188 1.375C108.021 2.25 109.521 3.125 110.688 4C111.854 4.875 112.771 5.8125 113.438 6.8125C114.146 7.77083 114.646 8.79167 114.938 9.875C115.229 10.9583 115.396 12.1458 115.438 13.4375C115.396 15.3542 114.938 17.2083 114.062 19C113.688 19.75 113.188 20.5417 112.562 21.375C111.979 22.1667 111.25 22.9375 110.375 23.6875C109.5 24.4375 108.458 25.1458 107.25 25.8125C106.083 26.4792 104.708 27.0625 103.125 27.5625C104.667 28.0208 105.938 28.5625 106.938 29.1875C107.979 29.8125 108.812 30.3958 109.438 30.9375C110.188 31.6042 110.75 32.25 111.125 32.875C111.583 33.75 111.896 34.5 112.062 35.125C112.229 35.75 112.333 36.3542 112.375 36.9375C112.458 37.4792 112.562 38.0417 112.688 38.625C112.812 39.2083 113.083 39.875 113.5 40.625C113.833 41.2083 114.229 41.8125 114.688 42.4375C115.104 42.9792 115.583 43.5625 116.125 44.1875C116.708 44.8125 117.417 45.4167 118.25 46C117.083 46.0417 116 46.0625 115 46.0625C114.042 46.0625 113.208 46.0625 112.5 46.0625C111.667 46.0625 110.875 46.0417 110.125 46C109.375 45.9583 108.438 45.9375 107.312 45.9375C106.354 45.9375 105.125 45.9375 103.625 45.9375C102.167 45.9375 100.396 45.9583 98.3125 46C99.2292 45.2917 99.9792 44.5833 100.562 43.875C101.146 43.1667 101.604 42.5208 101.938 41.9375C102.312 41.2708 102.583 40.625 102.75 40C102.958 38.875 102.979 37.7083 102.812 36.5C102.688 35.4583 102.354 34.3125 101.812 33.0625C101.271 31.7708 100.396 30.4792 99.1875 29.1875C97.9792 29.3958 96.9583 29.5625 96.125 29.6875C95.3333 29.7708 94.6458 29.8542 94.0625 29.9375C93.3958 30.0208 92.8542 30.0833 92.4375 30.125C92.0625 30.1667 91.6458 30.2083 91.1875 30.25C90.8125 30.2917 90.3958 30.3542 89.9375 30.4375C89.5208 30.4792 89.125 30.5417 88.75 30.625C88.6667 32.4167 88.6667 33.9792 88.75 35.3125C88.8333 36.6042 88.9375 37.6875 89.0625 38.5625C89.2292 39.6042 89.4167 40.5 89.625 41.25C89.8333 42 90.125 42.7292 90.5 43.4375C90.7917 44.0208 91.1667 44.6458 91.625 45.3125C92.0833 45.9375 92.6042 46.4583 93.1875 46.875C92.1042 46.875 91.0625 46.875 90.0625 46.875C89.1042 46.875 88.2292 46.8542 87.4375 46.8125C86.5208 46.8125 85.6458 46.7917 84.8125 46.75C83.9792 46.7083 83.0417 46.6875 82 46.6875C81.125 46.6875 80.0833 46.6875 78.875 46.6875C77.7083 46.6875 76.4375 46.7083 75.0625 46.75C76.1458 45.625 77 44.6667 77.625 43.875C78.25 43.0833 78.7292 42.4167 79.0625 41.875C79.4375 41.2917 79.6667 40.7917 79.75 40.375C79.8333 39.7083 79.8958 38.5208 79.9375 36.8125C80.0208 35.0625 80.0833 33.0625 80.125 30.8125C80.1667 28.5625 80.1875 26.2083 80.1875 23.75C80.1875 21.2917 80.1667 19 80.125 16.875C80.0833 14.7083 80.0417 12.8542 80 11.3125C79.9583 9.77083 79.9167 8.79167 79.875 8.375C79.75 7.625 79.4792 6.875 79.0625 6.125C78.7292 5.45833 78.25 4.70833 77.625 3.875C77 3.04167 76.1458 2.20833 75.0625 1.375ZM98.6875 23.375C99.1042 23.125 99.4583 22.875 99.75 22.625C100.042 22.375 100.292 21.9792 100.5 21.4375C100.708 20.8542 100.875 20.0417 101 19C101.167 17.9583 101.354 16.5417 101.562 14.75C101.729 12.9583 101.604 11.4792 101.188 10.3125C100.812 9.14583 100.292 8.22917 99.625 7.5625C99 6.85417 98.2917 6.375 97.5 6.125C96.75 5.83333 96.0833 5.6875 95.5 5.6875C94.3333 5.6875 93.1875 6.04167 92.0625 6.75C90.9375 7.45833 90.0833 8.41667 89.5 9.625C89.2917 10.1667 89.1042 11.0625 88.9375 12.3125C88.8125 13.3958 88.7292 14.8958 88.6875 16.8125C88.6458 18.7292 88.7083 21.25 88.875 24.375C90.4583 24.625 91.8542 24.7292 93.0625 24.6875C94.2708 24.6042 95.2917 24.4583 96.125 24.25C97.125 24.0417 97.9792 23.75 98.6875 23.375ZM114.75 2.25C116.333 2.625 117.75 2.91667 119 3.125C120.292 3.29167 121.375 3.41667 122.25 3.5C123.292 3.625 124.208 3.66667 125 3.625C126 3.58333 127.25 3.4375 128.75 3.1875C130.25 2.9375 131.833 2.6875 133.5 2.4375C135.167 2.1875 136.812 1.97917 138.438 1.8125C140.062 1.64583 141.479 1.625 142.688 1.75C143.896 1.875 145.167 2.16667 146.5 2.625C147.833 3.04167 149.083 3.625 150.25 4.375C151.417 5.08333 152.417 5.95833 153.25 7C154.125 8.04167 154.667 9.25 154.875 10.625C155.083 11.9583 154.958 13.3958 154.5 14.9375C154.042 16.4375 153.312 17.9167 152.312 19.375C151.312 20.7917 150.062 22.1042 148.562 23.3125C147.062 24.5208 145.396 25.5 143.562 26.25C142.104 26.7917 140.521 27.2083 138.812 27.5C137.354 27.75 135.646 27.9167 133.688 28C131.771 28.0417 129.729 27.8333 127.562 27.375C127.271 28.5833 127.104 29.7083 127.062 30.75C127.062 31.75 127.104 32.6458 127.188 33.4375C127.312 34.3542 127.479 35.1875 127.688 35.9375C127.938 36.6875 128.25 37.5625 128.625 38.5625C128.958 39.3958 129.333 40.4167 129.75 41.625C130.208 42.7917 130.75 44.1042 131.375 45.5625C130.625 45.5625 129.896 45.5833 129.188 45.625C128.479 45.625 127.833 45.6458 127.25 45.6875C126.583 45.7292 125.958 45.7708 125.375 45.8125C124.708 45.8542 123.958 45.9375 123.125 46.0625C122.417 46.1458 121.521 46.2708 120.438 46.4375C119.396 46.6042 118.208 46.8125 116.875 47.0625C117.75 45.8125 118.438 44.6667 118.938 43.625C119.479 42.5417 119.875 41.6042 120.125 40.8125C120.417 39.8958 120.604 39.0625 120.688 38.3125C120.729 37.6875 120.729 36.5833 120.688 35C120.688 33.4167 120.667 31.5833 120.625 29.5C120.583 27.4167 120.521 25.2292 120.438 22.9375C120.354 20.6458 120.25 18.5 120.125 16.5C120 14.4583 119.854 12.7083 119.688 11.25C119.562 9.79167 119.438 8.83333 119.312 8.375C119.146 7.83333 118.854 7.25 118.438 6.625C118.104 6.08333 117.625 5.45833 117 4.75C116.417 4 115.667 3.16667 114.75 2.25ZM127.688 14.5625C127.646 14.9792 127.625 15.4167 127.625 15.875C127.625 16.75 127.688 17.875 127.812 19.25C128.104 19.9583 128.458 20.5417 128.875 21C129.333 21.4583 129.812 21.8125 130.312 22.0625C130.854 22.3125 131.396 22.4792 131.938 22.5625C132.479 22.6458 133.021 22.6875 133.562 22.6875C134.812 22.6458 136.125 22.3542 137.5 21.8125C139.333 21.0208 140.625 19.8958 141.375 18.4375C142.125 16.9792 142.521 15.4792 142.562 13.9375C142.604 12.3958 142.333 10.9792 141.75 9.6875C141.208 8.39583 140.542 7.52083 139.75 7.0625C139.083 6.77083 138.229 6.64583 137.188 6.6875C136.271 6.72917 135.125 6.95833 133.75 7.375C132.375 7.79167 130.688 8.54167 128.688 9.625C128.479 10.375 128.312 11.0417 128.188 11.625C128.062 12.2083 127.958 12.7292 127.875 13.1875C127.792 13.6875 127.729 14.1458 127.688 14.5625ZM155.562 1.6875C156.771 1.89583 157.833 2.04167 158.75 2.125C159.708 2.20833 160.5 2.27083 161.125 2.3125C161.875 2.35417 162.521 2.375 163.062 2.375C163.604 2.375 164.375 2.33333 165.375 2.25C166.208 2.16667 167.292 2.0625 168.625 1.9375C170 1.8125 171.688 1.60417 173.688 1.3125C173.104 1.47917 172.562 1.95833 172.062 2.75C171.604 3.5 171.188 4.3125 170.812 5.1875C170.354 6.22917 169.958 7.375 169.625 8.625C169.333 9.75 168.958 11.2917 168.5 13.25C168.083 15.2083 167.667 17.3333 167.25 19.625C166.875 21.9167 166.583 24.25 166.375 26.625C166.167 28.9583 166.125 31.1042 166.25 33.0625C166.417 35.0208 166.812 36.6458 167.438 37.9375C168.062 39.1875 169.021 39.8542 170.312 39.9375C172.271 40.1042 173.896 40.125 175.188 40C176.521 39.8333 177.604 39.6042 178.438 39.3125C179.271 39.0208 179.917 38.6875 180.375 38.3125C180.833 37.8958 181.188 37.5 181.438 37.125C182.104 36.1667 182.792 34.9375 183.5 33.4375C184.208 31.9375 184.833 30.5 185.375 29.125C185.958 27.75 186.438 26.5833 186.812 25.625C187.188 24.6667 187.375 24.2083 187.375 24.25C187.375 24.3333 187.354 24.8125 187.312 25.6875C187.312 26.5208 187.292 27.5417 187.25 28.75C187.25 29.9167 187.229 31.1458 187.188 32.4375C187.188 33.7292 187.167 34.8333 187.125 35.75C187.083 36.5 187.042 37.3333 187 38.25C186.958 39.0417 186.917 39.9792 186.875 41.0625C186.875 42.1458 186.833 43.3333 186.75 44.625C185 44.5 183.333 44.4167 181.75 44.375C180.167 44.3333 178.771 44.3125 177.562 44.3125C176.146 44.3125 174.833 44.3333 173.625 44.375C172.333 44.4167 170.833 44.4792 169.125 44.5625C167.667 44.6458 165.854 44.75 163.688 44.875C161.521 44.9583 159.021 45.0833 156.188 45.25C156.521 44.6667 156.792 44.125 157 43.625C157.25 43.125 157.438 42.7083 157.562 42.375C157.729 41.9583 157.833 41.6042 157.875 41.3125C158.125 39.9792 158.333 38.2917 158.5 36.25C158.667 34.1667 158.792 31.9583 158.875 29.625C159 27.2917 159.062 24.9167 159.062 22.5C159.104 20.0417 159.104 17.7708 159.062 15.6875C159.021 13.6042 158.938 11.7917 158.812 10.25C158.729 8.70833 158.604 7.64583 158.438 7.0625C158.229 6.39583 157.979 5.72917 157.688 5.0625C157.438 4.47917 157.125 3.89583 156.75 3.3125C156.417 2.6875 156.021 2.14583 155.562 1.6875ZM207.125 36.9375C208.292 36.9375 209.375 36.8125 210.375 36.5625C211.208 36.3542 212 36.0208 212.75 35.5625C213.542 35.0625 214.062 34.3333 214.312 33.375C215.146 33.5417 215.854 33.6875 216.438 33.8125C217.021 33.8958 217.521 33.9792 217.938 34.0625C218.396 34.1875 218.792 34.2708 219.125 34.3125C219.458 34.3958 219.854 34.4792 220.312 34.5625C220.729 34.6458 221.229 34.75 221.812 34.875C222.438 34.9583 223.167 35.0833 224 35.25C223.375 35.1667 222.729 35.2292 222.062 35.4375C221.438 35.6458 220.833 35.875 220.25 36.125C219.583 36.4167 218.958 36.7708 218.375 37.1875C218 37.4375 217.562 37.8125 217.062 38.3125C216.604 38.8125 215.938 39.2917 215.062 39.75C214.188 40.2083 213.021 40.6042 211.562 40.9375C210.146 41.2292 208.312 41.3333 206.062 41.25C203.354 41.1667 201.083 40.6875 199.25 39.8125C197.417 38.8958 195.938 37.7917 194.812 36.5C193.688 35.1667 192.875 33.7292 192.375 32.1875C191.875 30.6458 191.604 29.2083 191.562 27.875C191.521 26.5417 191.917 25.1458 192.75 23.6875C193.583 22.2292 194.75 20.8958 196.25 19.6875C197.792 18.4792 199.646 17.5 201.812 16.75C203.979 15.9583 206.354 15.5625 208.938 15.5625C210.438 15.5625 211.812 15.75 213.062 16.125C214.354 16.4583 215.521 16.9167 216.562 17.5C217.646 18.0833 218.583 18.75 219.375 19.5C220.167 20.2083 220.833 20.9375 221.375 21.6875C221.917 22.4792 222.375 23.3125 222.75 24.1875C223.083 24.9375 223.354 25.7917 223.562 26.75C223.771 27.7083 223.833 28.6875 223.75 29.6875C220.583 29.7708 218.021 29.8333 216.062 29.875C214.146 29.9167 212.646 29.9375 211.562 29.9375H208.75H206.625C205.875 29.9375 204.896 29.9583 203.688 30C202.479 30.0417 201 30.1042 199.25 30.1875C199.458 31.8542 199.979 33.1458 200.812 34.0625C201.688 34.9375 202.604 35.6042 203.562 36.0625C204.646 36.5625 205.833 36.8542 207.125 36.9375ZM201.5 25.6875C202.833 25.7708 203.938 25.8333 204.812 25.875C205.729 25.9167 206.479 25.9583 207.062 26C207.688 26.0417 208.188 26.0625 208.562 26.0625H210.125C211.167 26.0625 213.104 26 215.938 25.875C215.812 24.0417 215.417 22.6458 214.75 21.6875C214.125 20.7292 213.458 20.0208 212.75 19.5625C211.917 19.0625 211 18.7708 210 18.6875C207.292 18.7292 205.271 19.2917 203.938 20.375C202.646 21.4583 201.833 23.2292 201.5 25.6875Z" fill="#9747FF"/>
</svg>
